<?xml version="1.0" encoding="UTF-8"?> <svg xmlns="http://www.w3.org/2000/svg" width="611" height="175" viewBox="0 0 611 175" fill="none"> <path d="M3.62544 129.913C5.89231 124.981 8.47185 121.021 12.3021 111.642C13.7091 108.238 18.5555 107.683 18.7118 103.584C21.4477 99.4156 26.216 98.6514 30.6715 97.262C40.4425 96.7757 50.6044 94.8305 57.3268 104.417C62.7986 119.215 60.688 125.606 48.4938 131.094C42.3186 131.025 47.8685 121.855 47.165 118.52C45.5235 111.156 36.3778 109.558 30.3589 114.56C23.0111 120.674 17.1485 131.858 15.2725 141.098C13.2401 151.379 20.8224 162.217 31.9222 160.619C33.7201 160.341 41.6932 158.535 43.7256 155.756C48.0248 149.921 47.3213 149.017 52.7149 145.822C58.4993 142.418 62.0951 143.46 62.1732 150.476C58.4993 165.829 45.9143 171.04 31.5314 174.235C25.747 174.86 20.3534 173.263 14.8035 172.151C10.8169 170.762 7.612 168.469 5.4233 165.065C0.107878 153.186 -1.84632 141.862 3.62544 129.913Z" fill="#6FAC9A"></path> <path d="M279.085 37.6502C279.319 36.6081 281.117 36.2608 281.82 35.9829C282.915 35.5661 285.416 35.2882 286.511 35.0798C297.22 33.1346 306.443 36.5387 316.683 39.9427C320.904 42.0963 324.891 44.7362 328.721 47.515C335.522 53.8368 338.727 62.2427 343.651 69.676C347.325 75.1642 344.042 77.0399 338.336 76.4146C331.144 75.6505 324.266 73.9832 318.638 69.1203C314.729 65.7162 310.508 62.59 304.645 62.0343C308.945 68.2171 315.276 71.6212 321.842 75.0252C324.578 76.4146 330.285 77.3178 326.298 82.5975C320.826 84.4732 315.276 83.9869 309.726 83.2227C307.069 82.5975 304.411 81.7639 301.831 80.7913C296.985 78.6377 291.904 76.762 288.856 72.2464C284.556 64.5352 283.071 56.1293 281.351 47.7234C280.804 44.0415 278.537 40.4985 279.085 37.6502Z" fill="#6FAC9A"></path> <path d="M335.765 44.8084C333.889 40.918 333.967 36.7498 333.811 32.6511C334.201 27.5797 336.234 22.9947 338.188 18.3402C340.377 12.9215 342.565 7.43333 344.754 2.01464C345.77 0.347352 347.412 0 349.21 0C352.649 0.625233 354.212 3.19564 355.854 5.76604C358.121 9.86479 362.029 12.4352 366.094 14.5888C371.8 17.576 375.318 22.0221 377.116 27.7882C377.741 30.9838 377.35 36.4025 375.63 39.6676C372.113 46.2673 371.097 50.505 364.296 57.8688C364.531 45.1557 366.094 33.7626 355.307 23.8283C359.606 40.2928 358.433 54.6732 349.757 69.5398C344.676 60.5087 340.22 52.6585 335.765 44.8084Z" fill="#6FAC9A"></path> <path d="M300.199 137.484C300.199 136.372 299.808 129.356 299.808 128.244C299.886 123.104 299.261 122.617 300.277 116.851C300.59 115.253 300.59 113.586 300.511 111.919C300.277 106.083 301.762 100.665 309.032 100.804C316.458 100.942 311.768 105.597 314.113 108.584C315.129 109.835 314.972 115.809 315.207 117.337C316.848 127.966 315.129 142.347 315.441 153.532C330.059 143.18 351.399 130.884 349.054 106.917C351.242 100.178 356.401 102.749 360.623 99.1362C365 96.7743 367.579 98.5805 369.299 102.471C369.768 103.999 369.846 105.528 369.768 107.056C369.456 114.142 362.42 119.352 360.466 125.813C360.075 133.594 359.763 142.347 359.294 150.128C358.903 157.908 364.844 165.758 355.229 171.177C351.711 172.427 348.272 173.053 345.223 170.135C344.207 168.815 343.738 167.356 343.504 165.758C342.957 160.201 348.037 154.157 345.771 147.557C335.843 153.532 328.73 157.7 319.741 166.87C313.878 172.844 304.732 176.804 298.01 167.356C295.509 161.59 297.228 157.283 299.73 150.128" fill="#6FAC9A"></path> <path d="M540.412 138.869C540.412 137.757 540.021 130.741 540.021 129.629C540.099 124.488 539.474 124.002 540.49 118.236C540.802 116.638 540.802 114.971 540.724 113.304C540.49 107.468 541.975 102.049 549.245 102.188C556.671 102.327 551.981 106.982 554.326 109.969C555.342 111.219 555.185 117.194 555.42 118.722C557.061 129.351 555.342 143.732 555.654 154.916C570.272 144.565 591.612 132.269 589.267 108.302C591.455 101.563 596.614 104.133 600.835 100.521C605.213 98.159 607.792 99.9652 609.512 103.856C609.981 105.384 610.059 106.912 609.981 108.441C609.668 115.527 602.633 120.737 600.679 127.198C600.288 134.978 599.976 143.732 599.507 151.512C599.116 159.293 605.057 167.143 595.442 172.562C591.924 173.812 588.485 174.437 585.436 171.52C584.42 170.2 583.951 168.741 583.717 167.143C583.169 161.585 588.25 155.542 585.984 148.942C576.056 154.916 568.943 159.085 559.954 168.255C554.091 174.229 544.945 178.189 538.223 168.741C535.722 162.975 537.441 158.668 539.943 151.512" fill="#6FAC9A"></path> <path d="M582.535 93.369C584.02 93.2301 582.77 96.1479 582.848 97.5373C583.942 101.705 581.05 104.971 579.956 108.653C578.47 111.709 576.203 114.28 573.937 116.85C571.748 119.282 569.481 123.45 565.729 121.435C561.977 119.42 564.791 115.461 565.573 112.334C566.276 110.528 567.136 108.791 567.918 107.055C569.481 103.72 569.481 99.5519 573.702 97.6762C575.891 94.8974 580.19 93.5775 582.535 93.369Z" fill="#6FAC9A"></path> <path d="M409.786 40.4296C417.368 42.2358 424.872 41.7496 431.36 40.5686C433.471 39.7349 433.94 40.8464 434.096 42.4443C431.908 46.0567 428.39 48.9745 427.218 53.1427C424.247 60.5066 424.951 68.2178 419.01 74.3312C415.883 77.5268 410.568 80.514 405.643 81.2087C396.497 82.5287 387.977 86.3495 379.222 80.9308C377.815 80.0277 376.721 78.9162 377.346 77.11C381.098 75.8595 384.225 74.6785 388.446 73.1502C393.293 71.4829 396.732 68.4262 400.406 65.3695C395.09 67.7315 391.104 66.62 383.834 69.2598C377.346 71.6218 369.999 72.6639 361.947 69.5377C369.139 60.0897 376.174 51.1975 385.789 44.2505C387.196 41.7496 395.403 39.5265 398.374 39.457" fill="#6FAC9A"></path> <path d="M357.885 75.098C352.648 82.4619 347.332 89.8257 342.095 97.1896C342.33 100.177 340.297 102.191 338.187 103.928C335.451 106.221 332.168 110.667 328.572 107.471C325.211 104.484 330.995 102.261 332.168 99.4127L332.09 99.5516C338.343 95.4528 340.923 88.9226 344.597 83.0871C351.163 73.5697 351.163 73.5697 357.885 75.098Z" fill="#6FAC9A"></path> <path d="M472.002 140.749C468.094 151.448 459.496 148.53 453.398 152.004C461.137 155.824 457.62 164.3 461.528 169.996C462.779 170.135 463.951 170.413 465.202 170.413C468.563 170.552 469.032 170.205 470.595 169.093C473.957 166.106 475.207 161.452 480.21 160.479C489.668 158.673 501.784 150.753 512.806 157.978C519.529 162.355 501.003 161.104 492.248 163.049C487.792 164.022 495.453 168.051 498.736 168.885C504.286 170.205 510.07 170.761 515.62 172.219C520.232 172.775 524.844 173.678 528.44 169.649C529.69 166.384 527.58 163.814 526.564 161.035C525.704 158.742 524.844 156.38 527.658 154.782C537.116 149.503 530.707 145.543 525.704 143.667C517.887 140.749 515.151 135.261 513.431 128.523C512.493 124.98 511.477 121.437 510.227 117.894C509.367 115.671 508.585 113.447 507.725 111.224C506.318 107.681 505.224 103.93 501.394 101.846C498.658 100.873 496.156 99.2755 493.108 99.2061C484.118 100.248 484.118 108.376 481.304 114.351L472.002 140.749ZM498.97 145.821C493.03 146.099 487.167 146.585 480.445 147.071C484.04 137.206 487.48 128.036 493.733 119.144C499.83 125.049 501.003 132.482 503.817 139.013C505.302 142.556 503.973 145.612 498.97 145.821Z" fill="#6FAC9A"></path> <path d="M231.803 140.749C227.895 151.448 219.296 148.53 213.199 152.004C220.938 155.824 217.42 164.3 221.329 169.996C222.579 170.135 223.752 170.413 225.003 170.413C228.364 170.552 228.833 170.205 230.396 169.093C233.757 166.106 235.008 161.452 240.011 160.479C249.469 158.673 261.585 150.753 272.607 157.978C279.329 162.355 260.804 161.104 252.049 163.049C247.593 164.022 255.254 168.051 258.537 168.885C264.087 170.205 269.871 170.761 275.421 172.219C280.033 172.775 284.645 173.678 288.24 169.649C289.491 166.384 287.381 163.814 286.364 161.035C285.505 158.742 284.645 156.38 287.459 154.782C296.917 149.503 290.507 145.543 285.505 143.667C277.688 140.749 274.952 135.261 273.232 128.523C272.294 124.98 271.278 121.437 270.027 117.894C269.167 115.671 268.386 113.447 267.526 111.224C266.119 107.681 265.025 103.93 261.194 101.846C258.458 100.873 255.957 99.2755 252.909 99.2061C243.919 100.248 243.919 108.376 241.105 114.351L231.803 140.749ZM258.693 145.821C252.752 146.099 246.89 146.585 240.167 147.071C243.763 137.206 247.202 128.036 253.456 119.144C259.553 125.049 260.725 132.482 263.539 139.013C265.025 142.556 263.774 145.612 258.693 145.821Z" fill="#6FAC9A"></path> <path d="M86.0161 139.983C82.1077 150.681 73.5092 147.763 67.4121 151.237C75.1507 155.058 71.6332 163.533 75.5416 169.23C76.7923 169.369 77.9648 169.647 79.2155 169.647C82.5767 169.786 83.0457 169.438 84.6091 168.327C87.9703 165.339 89.221 160.685 94.2237 159.712C103.682 157.906 115.798 149.986 126.82 157.211C133.542 161.588 115.016 160.338 106.262 162.283C101.806 163.255 109.466 167.285 112.75 168.118C118.299 169.438 124.084 169.994 129.634 171.453C134.246 172.009 138.858 172.912 142.453 168.882C143.704 165.617 141.593 163.047 140.577 160.268C139.717 157.976 138.858 155.614 141.672 154.016C151.13 148.736 144.72 144.776 139.717 142.9C131.901 139.983 129.165 134.495 127.445 127.756C126.507 124.213 125.491 120.67 124.24 117.127C123.38 114.904 122.599 112.681 121.739 110.458C120.332 106.915 119.237 103.163 115.407 101.079C112.671 100.107 110.17 98.5089 107.121 98.4395C98.1321 99.4815 98.1321 107.61 95.3181 113.584L86.0161 139.983ZM112.906 145.054C106.965 145.332 101.102 145.818 94.38 146.305C97.9758 136.44 101.415 127.27 107.669 118.377C113.766 124.282 114.938 131.716 117.752 138.246C119.237 141.789 117.909 144.846 112.906 145.054Z" fill="#6FAC9A"></path> <path d="M209.6 148.386C204.676 140.467 196.859 136.507 187.791 134.145C175.675 132.13 172.314 128.518 174.19 118.444C176.222 107.677 184.508 113.79 190.371 113.79C192.481 113.79 194.592 114.415 196.702 114.624C199.751 114.901 203.425 115.735 204.285 111.845C205.145 108.024 201.705 106.287 198.657 104.689C187.557 97.9507 175.441 97.4644 162.856 99.1317C157.697 100.521 152.538 101.98 147.378 103.369C142.845 102.953 141.75 105.87 141.047 109.135C141.203 115.805 149.176 120.945 154.023 124.836C165.513 134.075 160.98 143.315 160.98 155.055C160.98 160.127 149.02 153.18 150.818 160.821C151.99 165.823 153.866 168.185 158.635 170.964C159.807 171.659 161.136 172.145 162.465 172.423C169.422 173.604 176.379 172.909 183.336 173.048C187.635 172.979 191.856 172.284 195.921 170.964C209.131 167.074 212.727 161.03 209.6 148.386ZM160.042 122.821C150.974 114.901 151.443 113.373 164.028 110.525C160.276 113.859 160.12 118.236 160.042 122.821ZM196.233 151.86C197.953 163.044 185.603 163.114 178.567 163.809C170.438 164.642 172.549 156.445 171.923 152.415C170.751 145.052 175.832 142.898 182.163 143.593C187.479 144.148 195.374 145.955 196.233 151.86Z" fill="#6FAC9A"></path> <path d="M433.238 101.215C441.915 101.771 450.2 98.714 459.346 101.493C462.16 102.326 460.128 105.314 459.815 106.495C458.955 109.273 457.939 112.4 454.969 113.094C437.694 117.193 437.615 114.762 437.694 131.365C437.772 144.495 438.71 148.385 438.084 168.879C437.928 173.047 428.939 172.144 424.64 169.713C421.904 168.184 420.575 164.85 420.731 161.863C422.607 154.846 420.966 149.08 420.184 142.272C419.793 139.007 418.855 135.742 420.34 132.06C425.89 118.583 425.578 116.776 408.85 115.804C405.879 115.248 403.378 113.997 401.815 111.427C400.251 108.023 400.095 104.619 401.346 101.145C401.815 100.034 402.44 98.575 403.769 98.5056C415.494 98.0887 423.389 100.59 433.238 101.215Z" fill="#6FAC9A"></path> </svg>